<svg width="203" height="153" viewBox="0 0 203 153" fill="none" xmlns="http://www.w3.org/2000/svg">
<rect width="203" height="153" rx="8" fill="#FAFBFE"/>
<path d="M105.75 43.75H98.25C97.2146 43.75 96.375 42.9104 96.375 41.875V38.125C96.375 35.0232 98.8982 32.5 102 32.5C105.102 32.5 107.625 35.0232 107.625 38.125V41.875C107.625 42.9104 106.785 43.75 105.75 43.75ZM100.125 40H103.875V38.125C103.875 37.0913 103.034 36.25 102 36.25C100.966 36.25 100.125 37.0913 100.125 38.125V40Z" fill="#2AA7FF"/>
<path d="M111.375 40H81.375C78.2732 40 75.75 42.5232 75.75 45.625V68.125C75.75 71.2268 78.2732 73.75 81.375 73.75H85.125V70H81.375C80.3413 70 79.5 69.1587 79.5 68.125V45.625C79.5 44.5913 80.3413 43.75 81.375 43.75H111.375C118.612 43.75 124.5 49.6377 124.5 56.875V68.125C124.5 69.1587 123.659 70 122.625 70H118.875V73.75H122.625C125.727 73.75 128.25 71.2268 128.25 68.125V56.875C128.25 47.5705 120.68 40 111.375 40Z" fill="#2AA7FF"/>
<path d="M111.375 70H92.625V73.75H111.375V70Z" fill="#2AA7FF"/>
<path d="M88.875 77.5C85.7732 77.5 83.25 74.9768 83.25 71.875C83.25 68.7732 85.7732 66.25 88.875 66.25C91.9768 66.25 94.5 68.7732 94.5 71.875C94.5 74.9768 91.9768 77.5 88.875 77.5ZM88.875 70C87.8413 70 87 70.8413 87 71.875C87 72.9087 87.8413 73.75 88.875 73.75C89.9087 73.75 90.75 72.9087 90.75 71.875C90.75 70.8413 89.9087 70 88.875 70Z" fill="#2AA7FF"/>
<path d="M115.125 77.5C112.023 77.5 109.5 74.9768 109.5 71.875C109.5 68.7732 112.023 66.25 115.125 66.25C118.227 66.25 120.75 68.7732 120.75 71.875C120.75 74.9768 118.227 77.5 115.125 77.5ZM115.125 70C114.091 70 113.25 70.8413 113.25 71.875C113.25 72.9087 114.091 73.75 115.125 73.75C116.159 73.75 117 72.9087 117 71.875C117 70.8413 116.159 70 115.125 70Z" fill="#2AA7FF"/>
<path d="M96.375 53.125H92.625V49.375C92.625 48.3396 91.7854 47.5 90.75 47.5C89.7146 47.5 88.875 48.3396 88.875 49.375V53.125H85.125C84.0896 53.125 83.25 53.9646 83.25 55C83.25 56.0354 84.0896 56.875 85.125 56.875H88.875V60.625C88.875 61.6604 89.7146 62.5 90.75 62.5C91.7854 62.5 92.625 61.6604 92.625 60.625V56.875H96.375C97.4104 56.875 98.25 56.0354 98.25 55C98.25 53.9646 97.4104 53.125 96.375 53.125Z" fill="#2AA7FF"/>
<path d="M118.875 62.5H107.625C106.59 62.5 105.75 61.6604 105.75 60.625V49.375C105.75 48.3396 106.59 47.5 107.625 47.5H111.375C116.544 47.5 120.75 51.706 120.75 56.875V60.625C120.75 61.6604 119.91 62.5 118.875 62.5ZM109.5 58.75H117V56.875C117 53.7732 114.477 51.25 111.375 51.25H109.5V58.75Z" fill="#2AA7FF"/>
<path d="M56.0847 116.21H50.6127L49.6047 119H47.8767L52.4127 106.526H54.3027L58.8207 119H57.0927L56.0847 116.21ZM55.6167 114.878L53.3487 108.542L51.0807 114.878H55.6167ZM73.0196 108.956C73.7876 108.956 74.4716 109.118 75.0716 109.442C75.6716 109.754 76.1456 110.228 76.4936 110.864C76.8416 111.5 77.0156 112.274 77.0156 113.186V119H75.3956V113.42C75.3956 112.436 75.1496 111.686 74.6576 111.17C74.1776 110.642 73.5236 110.378 72.6956 110.378C71.8436 110.378 71.1656 110.654 70.6616 111.206C70.1576 111.746 69.9056 112.532 69.9056 113.564V119H68.2856V113.42C68.2856 112.436 68.0396 111.686 67.5476 111.17C67.0676 110.642 66.4136 110.378 65.5856 110.378C64.7336 110.378 64.0556 110.654 63.5516 111.206C63.0476 111.746 62.7956 112.532 62.7956 113.564V119H61.1576V109.136H62.7956V110.558C63.1196 110.042 63.5516 109.646 64.0916 109.37C64.6436 109.094 65.2496 108.956 65.9096 108.956C66.7376 108.956 67.4696 109.142 68.1056 109.514C68.7416 109.886 69.2156 110.432 69.5276 111.152C69.8036 110.456 70.2596 109.916 70.8956 109.532C71.5316 109.148 72.2396 108.956 73.0196 108.956ZM81.7005 110.972C82.0365 110.384 82.5285 109.904 83.1765 109.532C83.8245 109.16 84.5625 108.974 85.3905 108.974C86.2785 108.974 87.0765 109.184 87.7845 109.604C88.4925 110.024 89.0505 110.618 89.4585 111.386C89.8665 112.142 90.0705 113.024 90.0705 114.032C90.0705 115.028 89.8665 115.916 89.4585 116.696C89.0505 117.476 88.4865 118.082 87.7665 118.514C87.0585 118.946 86.2665 119.162 85.3905 119.162C84.5385 119.162 83.7885 118.976 83.1405 118.604C82.5045 118.232 82.0245 117.758 81.7005 117.182V119H80.0625V105.68H81.7005V110.972ZM88.3965 114.032C88.3965 113.288 88.2465 112.64 87.9465 112.088C87.6465 111.536 87.2385 111.116 86.7225 110.828C86.2185 110.54 85.6605 110.396 85.0485 110.396C84.4485 110.396 83.8905 110.546 83.3745 110.846C82.8705 111.134 82.4625 111.56 82.1505 112.124C81.8505 112.676 81.7005 113.318 81.7005 114.05C81.7005 114.794 81.8505 115.448 82.1505 116.012C82.4625 116.564 82.8705 116.99 83.3745 117.29C83.8905 117.578 84.4485 117.722 85.0485 117.722C85.6605 117.722 86.2185 117.578 86.7225 117.29C87.2385 116.99 87.6465 116.564 87.9465 116.012C88.2465 115.448 88.3965 114.788 88.3965 114.032ZM101.335 109.136V119H99.6966V117.542C99.3846 118.046 98.9466 118.442 98.3826 118.73C97.8306 119.006 97.2186 119.144 96.5466 119.144C95.7786 119.144 95.0886 118.988 94.4766 118.676C93.8646 118.352 93.3786 117.872 93.0186 117.236C92.6706 116.6 92.4966 115.826 92.4966 114.914V109.136H94.1166V114.698C94.1166 115.67 94.3626 116.42 94.8546 116.948C95.3466 117.464 96.0186 117.722 96.8706 117.722C97.7466 117.722 98.4366 117.452 98.9406 116.912C99.4446 116.372 99.6966 115.586 99.6966 114.554V109.136H101.335ZM106.098 105.68V119H104.46V105.68H106.098ZM108.638 114.032C108.638 113.024 108.842 112.142 109.25 111.386C109.658 110.618 110.216 110.024 110.924 109.604C111.644 109.184 112.442 108.974 113.318 108.974C114.182 108.974 114.932 109.16 115.568 109.532C116.204 109.904 116.678 110.372 116.99 110.936V109.136H118.646V119H116.99V117.164C116.666 117.74 116.18 118.22 115.532 118.604C114.896 118.976 114.152 119.162 113.3 119.162C112.424 119.162 111.632 118.946 110.924 118.514C110.216 118.082 109.658 117.476 109.25 116.696C108.842 115.916 108.638 115.028 108.638 114.032ZM116.99 114.05C116.99 113.306 116.84 112.658 116.54 112.106C116.24 111.554 115.832 111.134 115.316 110.846C114.812 110.546 114.254 110.396 113.642 110.396C113.03 110.396 112.472 110.54 111.968 110.828C111.464 111.116 111.062 111.536 110.762 112.088C110.462 112.64 110.312 113.288 110.312 114.032C110.312 114.788 110.462 115.448 110.762 116.012C111.062 116.564 111.464 116.99 111.968 117.29C112.472 117.578 113.03 117.722 113.642 117.722C114.254 117.722 114.812 117.578 115.316 117.29C115.832 116.99 116.24 116.564 116.54 116.012C116.84 115.448 116.99 114.794 116.99 114.05ZM126.58 108.956C127.78 108.956 128.752 109.322 129.496 110.054C130.24 110.774 130.612 111.818 130.612 113.186V119H128.992V113.42C128.992 112.436 128.746 111.686 128.254 111.17C127.762 110.642 127.09 110.378 126.238 110.378C125.374 110.378 124.684 110.648 124.168 111.188C123.664 111.728 123.412 112.514 123.412 113.546V119H121.774V109.136H123.412V110.54C123.736 110.036 124.174 109.646 124.726 109.37C125.29 109.094 125.908 108.956 126.58 108.956ZM133.036 114.05C133.036 113.03 133.24 112.142 133.648 111.386C134.056 110.618 134.62 110.024 135.34 109.604C136.072 109.184 136.906 108.974 137.842 108.974C139.054 108.974 140.05 109.268 140.83 109.856C141.622 110.444 142.144 111.26 142.396 112.304H140.632C140.464 111.704 140.134 111.23 139.642 110.882C139.162 110.534 138.562 110.36 137.842 110.36C136.906 110.36 136.15 110.684 135.574 111.332C134.998 111.968 134.71 112.874 134.71 114.05C134.71 115.238 134.998 116.156 135.574 116.804C136.15 117.452 136.906 117.776 137.842 117.776C138.562 117.776 139.162 117.608 139.642 117.272C140.122 116.936 140.452 116.456 140.632 115.832H142.396C142.132 116.84 141.604 117.65 140.812 118.262C140.02 118.862 139.03 119.162 137.842 119.162C136.906 119.162 136.072 118.952 135.34 118.532C134.62 118.112 134.056 117.518 133.648 116.75C133.24 115.982 133.036 115.082 133.036 114.05ZM153.941 113.69C153.941 114.002 153.923 114.332 153.887 114.68H146.003C146.063 115.652 146.393 116.414 146.993 116.966C147.605 117.506 148.343 117.776 149.207 117.776C149.915 117.776 150.503 117.614 150.971 117.29C151.451 116.954 151.787 116.51 151.979 115.958H153.743C153.479 116.906 152.951 117.68 152.159 118.28C151.367 118.868 150.383 119.162 149.207 119.162C148.271 119.162 147.431 118.952 146.687 118.532C145.955 118.112 145.379 117.518 144.959 116.75C144.539 115.97 144.329 115.07 144.329 114.05C144.329 113.03 144.533 112.136 144.941 111.368C145.349 110.6 145.919 110.012 146.651 109.604C147.395 109.184 148.247 108.974 149.207 108.974C150.143 108.974 150.971 109.178 151.691 109.586C152.411 109.994 152.963 110.558 153.347 111.278C153.743 111.986 153.941 112.79 153.941 113.69ZM152.249 113.348C152.249 112.724 152.111 112.19 151.835 111.746C151.559 111.29 151.181 110.948 150.701 110.72C150.233 110.48 149.711 110.36 149.135 110.36C148.307 110.36 147.599 110.624 147.011 111.152C146.435 111.68 146.105 112.412 146.021 113.348H152.249Z" fill="#ABB6C7"/>
</svg>
