<svg width="203" height="153" viewBox="0 0 203 153" fill="none" xmlns="http://www.w3.org/2000/svg">
<rect width="203" height="153" rx="8" fill="#FAFBFE"/>
<path d="M109.678 53.1514L102 63.8987L94.3223 53.1514L90.9801 54.8226C91.0239 54.9109 91.0406 55.0069 91.0997 55.0896L100.475 68.2146C100.826 68.7071 101.394 69 102 69C102.606 69 103.174 68.7071 103.525 68.2146L112.9 55.0896C112.96 55.0069 112.976 54.9109 113.02 54.8226L109.678 53.1514Z" fill="#2AA7FF"/>
<path d="M119.318 55.866L109.052 50.7422C108.215 51.7057 107.199 52.4951 106.036 53.0535C106.213 53.3588 106.449 53.6333 106.788 53.8024L117.637 59.2168C119.529 60.1708 120.75 62.1484 120.75 64.2559V76.5002H83.25V64.2559C83.25 62.1484 84.4714 60.1708 86.3554 59.2206L97.2116 53.8026C97.5514 53.6334 97.7865 53.3589 97.9641 53.0537C96.8012 52.4955 95.7849 51.7059 94.9483 50.7424L84.6744 55.8698C81.5304 57.4536 79.4998 60.7459 79.4998 64.2561V78.3754C79.4998 79.4117 80.3385 80.2504 81.3748 80.2504H122.625C123.661 80.2504 124.5 79.4117 124.5 78.3754V64.2561C124.5 60.7459 122.469 57.4536 119.318 55.866Z" fill="#2AA7FF"/>
<path d="M92.625 69H88.875C87.8387 69 87 68.1613 87 67.125C87 66.0887 87.8387 65.25 88.875 65.25H92.625C93.6613 65.25 94.5 66.0887 94.5 67.125C94.5 68.1613 93.6613 69 92.625 69Z" fill="#2AA7FF"/>
<path d="M111.375 38.9367C104.394 38.5168 101.463 35.8105 101.451 35.7996C101.028 35.373 100.429 35.1752 99.8246 35.274C99.2295 35.3712 98.7169 35.7482 98.4476 36.2865L97.1183 38.9453C96.1697 38.872 94.7049 38.709 93.0368 38.3337C92.8965 38.3023 92.7623 38.3245 92.6248 38.3247V42.0762C95.7544 42.7343 98.1463 42.75 98.2498 42.75C98.9603 42.75 99.6084 42.349 99.927 41.7137L100.832 39.9047C102.767 41.0162 106.151 42.4041 111.27 42.6898C111.307 42.6912 111.339 42.6741 111.375 42.6733L111.375 38.9367Z" fill="#2AA7FF"/>
<path d="M102 55.875C95.7964 55.875 90.75 50.8286 90.75 44.625V39C90.75 32.7964 95.7964 27.75 102 27.75C108.204 27.75 113.25 32.7964 113.25 39V44.625C113.25 50.8286 108.204 55.875 102 55.875ZM102 31.5C97.8636 31.5 94.5 34.8636 94.5 39V44.625C94.5 48.7614 97.8636 52.125 102 52.125C106.136 52.125 109.5 48.7614 109.5 44.625V39C109.5 34.8636 106.136 31.5 102 31.5Z" fill="#2AA7FF"/>
<path d="M70.5304 106.454C71.8984 106.454 73.0804 106.712 74.0764 107.228C75.0844 107.732 75.8524 108.458 76.3804 109.406C76.9204 110.354 77.1904 111.47 77.1904 112.754C77.1904 114.038 76.9204 115.154 76.3804 116.102C75.8524 117.038 75.0844 117.758 74.0764 118.262C73.0804 118.754 71.8984 119 70.5304 119H66.6244V106.454H70.5304ZM70.5304 117.65C72.1504 117.65 73.3864 117.224 74.2384 116.372C75.0904 115.508 75.5164 114.302 75.5164 112.754C75.5164 111.194 75.0844 109.976 74.2204 109.1C73.3684 108.224 72.1384 107.786 70.5304 107.786H68.2624V117.65H70.5304ZM84.0129 119.162C83.0889 119.162 82.2489 118.952 81.4929 118.532C80.7489 118.112 80.1609 117.518 79.7289 116.75C79.3089 115.97 79.0989 115.07 79.0989 114.05C79.0989 113.042 79.3149 112.154 79.7469 111.386C80.1909 110.606 80.7909 110.012 81.5469 109.604C82.3029 109.184 83.1489 108.974 84.0849 108.974C85.0209 108.974 85.8669 109.184 86.6229 109.604C87.3789 110.012 87.9729 110.6 88.4049 111.368C88.8489 112.136 89.0709 113.03 89.0709 114.05C89.0709 115.07 88.8429 115.97 88.3869 116.75C87.9429 117.518 87.3369 118.112 86.5689 118.532C85.8009 118.952 84.9489 119.162 84.0129 119.162ZM84.0129 117.722C84.6009 117.722 85.1529 117.584 85.6689 117.308C86.1849 117.032 86.5989 116.618 86.9109 116.066C87.2349 115.514 87.3969 114.842 87.3969 114.05C87.3969 113.258 87.2409 112.586 86.9289 112.034C86.6169 111.482 86.2089 111.074 85.7049 110.81C85.2009 110.534 84.6549 110.396 84.0669 110.396C83.4669 110.396 82.9149 110.534 82.4109 110.81C81.9189 111.074 81.5229 111.482 81.2229 112.034C80.9229 112.586 80.7729 113.258 80.7729 114.05C80.7729 114.854 80.9169 115.532 81.2049 116.084C81.5049 116.636 81.9009 117.05 82.3929 117.326C82.8849 117.59 83.4249 117.722 84.0129 117.722ZM90.9726 114.05C90.9726 113.03 91.1766 112.142 91.5846 111.386C91.9926 110.618 92.5566 110.024 93.2766 109.604C94.0086 109.184 94.8426 108.974 95.7786 108.974C96.9906 108.974 97.9866 109.268 98.7666 109.856C99.5586 110.444 100.081 111.26 100.333 112.304H98.5686C98.4006 111.704 98.0706 111.23 97.5786 110.882C97.0986 110.534 96.4986 110.36 95.7786 110.36C94.8426 110.36 94.0866 110.684 93.5106 111.332C92.9346 111.968 92.6466 112.874 92.6466 114.05C92.6466 115.238 92.9346 116.156 93.5106 116.804C94.0866 117.452 94.8426 117.776 95.7786 117.776C96.4986 117.776 97.0986 117.608 97.5786 117.272C98.0586 116.936 98.3886 116.456 98.5686 115.832H100.333C100.069 116.84 99.5406 117.65 98.7486 118.262C97.9566 118.862 96.9666 119.162 95.7786 119.162C94.8426 119.162 94.0086 118.952 93.2766 118.532C92.5566 118.112 91.9926 117.518 91.5846 116.75C91.1766 115.982 90.9726 115.082 90.9726 114.05ZM104.876 110.486V116.3C104.876 116.78 104.978 117.122 105.182 117.326C105.386 117.518 105.74 117.614 106.244 117.614H107.45V119H105.974C105.062 119 104.378 118.79 103.922 118.37C103.466 117.95 103.238 117.26 103.238 116.3V110.486H101.96V109.136H103.238V106.652H104.876V109.136H107.45V110.486H104.876ZM114.097 119.162C113.173 119.162 112.333 118.952 111.577 118.532C110.833 118.112 110.245 117.518 109.813 116.75C109.393 115.97 109.183 115.07 109.183 114.05C109.183 113.042 109.399 112.154 109.831 111.386C110.275 110.606 110.875 110.012 111.631 109.604C112.387 109.184 113.233 108.974 114.169 108.974C115.105 108.974 115.951 109.184 116.707 109.604C117.463 110.012 118.057 110.6 118.489 111.368C118.933 112.136 119.155 113.03 119.155 114.05C119.155 115.07 118.927 115.97 118.471 116.75C118.027 117.518 117.421 118.112 116.653 118.532C115.885 118.952 115.033 119.162 114.097 119.162ZM114.097 117.722C114.685 117.722 115.237 117.584 115.753 117.308C116.269 117.032 116.683 116.618 116.995 116.066C117.319 115.514 117.481 114.842 117.481 114.05C117.481 113.258 117.325 112.586 117.013 112.034C116.701 111.482 116.293 111.074 115.789 110.81C115.285 110.534 114.739 110.396 114.151 110.396C113.551 110.396 112.999 110.534 112.495 110.81C112.003 111.074 111.607 111.482 111.307 112.034C111.007 112.586 110.857 113.258 110.857 114.05C110.857 114.854 111.001 115.532 111.289 116.084C111.589 116.636 111.985 117.05 112.477 117.326C112.969 117.59 113.509 117.722 114.097 117.722ZM123.306 110.738C123.594 110.174 124.002 109.736 124.53 109.424C125.07 109.112 125.724 108.956 126.492 108.956V110.648H126.06C124.224 110.648 123.306 111.644 123.306 113.636V119H121.668V109.136H123.306V110.738ZM132.235 119.162C131.479 119.162 130.801 119.036 130.201 118.784C129.601 118.52 129.127 118.16 128.779 117.704C128.431 117.236 128.239 116.702 128.203 116.102H129.895C129.943 116.594 130.171 116.996 130.579 117.308C130.999 117.62 131.545 117.776 132.217 117.776C132.841 117.776 133.333 117.638 133.693 117.362C134.053 117.086 134.233 116.738 134.233 116.318C134.233 115.886 134.041 115.568 133.657 115.364C133.273 115.148 132.679 114.938 131.875 114.734C131.143 114.542 130.543 114.35 130.075 114.158C129.619 113.954 129.223 113.66 128.887 113.276C128.563 112.88 128.401 112.364 128.401 111.728C128.401 111.224 128.551 110.762 128.851 110.342C129.151 109.922 129.577 109.592 130.129 109.352C130.681 109.1 131.311 108.974 132.019 108.974C133.111 108.974 133.993 109.25 134.665 109.802C135.337 110.354 135.697 111.11 135.745 112.07H134.107C134.071 111.554 133.861 111.14 133.477 110.828C133.105 110.516 132.601 110.36 131.965 110.36C131.377 110.36 130.909 110.486 130.561 110.738C130.213 110.99 130.039 111.32 130.039 111.728C130.039 112.052 130.141 112.322 130.345 112.538C130.561 112.742 130.825 112.91 131.137 113.042C131.461 113.162 131.905 113.3 132.469 113.456C133.177 113.648 133.753 113.84 134.197 114.032C134.641 114.212 135.019 114.488 135.331 114.86C135.655 115.232 135.823 115.718 135.835 116.318C135.835 116.858 135.685 117.344 135.385 117.776C135.085 118.208 134.659 118.55 134.107 118.802C133.567 119.042 132.943 119.162 132.235 119.162Z" fill="#ABB6C7"/>
</svg>
