<svg width="203" height="153" viewBox="0 0 203 153" fill="none" xmlns="http://www.w3.org/2000/svg">
<rect width="203" height="153" rx="8" fill="#FAFBFE"/>
<path d="M83.233 117.668H87.625V119H81.595V106.454H83.233V117.668ZM89.1126 114.032C89.1126 113.024 89.3166 112.142 89.7246 111.386C90.1326 110.618 90.6906 110.024 91.3986 109.604C92.1186 109.184 92.9166 108.974 93.7926 108.974C94.6566 108.974 95.4066 109.16 96.0426 109.532C96.6786 109.904 97.1526 110.372 97.4646 110.936V109.136H99.1206V119H97.4646V117.164C97.1406 117.74 96.6546 118.22 96.0066 118.604C95.3706 118.976 94.6266 119.162 93.7746 119.162C92.8986 119.162 92.1066 118.946 91.3986 118.514C90.6906 118.082 90.1326 117.476 89.7246 116.696C89.3166 115.916 89.1126 115.028 89.1126 114.032ZM97.4646 114.05C97.4646 113.306 97.3146 112.658 97.0146 112.106C96.7146 111.554 96.3066 111.134 95.7906 110.846C95.2866 110.546 94.7286 110.396 94.1166 110.396C93.5046 110.396 92.9466 110.54 92.4426 110.828C91.9386 111.116 91.5366 111.536 91.2366 112.088C90.9366 112.64 90.7866 113.288 90.7866 114.032C90.7866 114.788 90.9366 115.448 91.2366 116.012C91.5366 116.564 91.9386 116.99 92.4426 117.29C92.9466 117.578 93.5046 117.722 94.1166 117.722C94.7286 117.722 95.2866 117.578 95.7906 117.29C96.3066 116.99 96.7146 116.564 97.0146 116.012C97.3146 115.448 97.4646 114.794 97.4646 114.05ZM103.887 110.972C104.223 110.384 104.715 109.904 105.363 109.532C106.011 109.16 106.749 108.974 107.577 108.974C108.465 108.974 109.263 109.184 109.971 109.604C110.679 110.024 111.237 110.618 111.645 111.386C112.053 112.142 112.257 113.024 112.257 114.032C112.257 115.028 112.053 115.916 111.645 116.696C111.237 117.476 110.673 118.082 109.953 118.514C109.245 118.946 108.453 119.162 107.577 119.162C106.725 119.162 105.975 118.976 105.327 118.604C104.691 118.232 104.211 117.758 103.887 117.182V119H102.249V105.68H103.887V110.972ZM110.583 114.032C110.583 113.288 110.433 112.64 110.133 112.088C109.833 111.536 109.425 111.116 108.909 110.828C108.405 110.54 107.847 110.396 107.235 110.396C106.635 110.396 106.077 110.546 105.561 110.846C105.057 111.134 104.649 111.56 104.337 112.124C104.037 112.676 103.887 113.318 103.887 114.05C103.887 114.794 104.037 115.448 104.337 116.012C104.649 116.564 105.057 116.99 105.561 117.29C106.077 117.578 106.635 117.722 107.235 117.722C107.847 117.722 108.405 117.578 108.909 117.29C109.425 116.99 109.833 116.564 110.133 116.012C110.433 115.448 110.583 114.788 110.583 114.032ZM118.265 119.162C117.509 119.162 116.831 119.036 116.231 118.784C115.631 118.52 115.157 118.16 114.809 117.704C114.461 117.236 114.269 116.702 114.233 116.102H115.925C115.973 116.594 116.201 116.996 116.609 117.308C117.029 117.62 117.575 117.776 118.247 117.776C118.871 117.776 119.363 117.638 119.723 117.362C120.083 117.086 120.263 116.738 120.263 116.318C120.263 115.886 120.071 115.568 119.687 115.364C119.303 115.148 118.709 114.938 117.905 114.734C117.173 114.542 116.573 114.35 116.105 114.158C115.649 113.954 115.253 113.66 114.917 113.276C114.593 112.88 114.431 112.364 114.431 111.728C114.431 111.224 114.581 110.762 114.881 110.342C115.181 109.922 115.607 109.592 116.159 109.352C116.711 109.1 117.341 108.974 118.049 108.974C119.141 108.974 120.023 109.25 120.695 109.802C121.367 110.354 121.727 111.11 121.775 112.07H120.137C120.101 111.554 119.891 111.14 119.507 110.828C119.135 110.516 118.631 110.36 117.995 110.36C117.407 110.36 116.939 110.486 116.591 110.738C116.243 110.99 116.069 111.32 116.069 111.728C116.069 112.052 116.171 112.322 116.375 112.538C116.591 112.742 116.855 112.91 117.167 113.042C117.491 113.162 117.935 113.3 118.499 113.456C119.207 113.648 119.783 113.84 120.227 114.032C120.671 114.212 121.049 114.488 121.361 114.86C121.685 115.232 121.853 115.718 121.865 116.318C121.865 116.858 121.715 117.344 121.415 117.776C121.115 118.208 120.689 118.55 120.137 118.802C119.597 119.042 118.973 119.162 118.265 119.162Z" fill="#ABB6C7"/>
<path d="M105.75 61.5H113.25V78.375H117V59.625C117 58.5887 116.161 57.75 115.125 57.75H103.875C102.839 57.75 102 58.5887 102 59.625V78.375H105.75V61.5Z" fill="#2AA7FF"/>
<path d="M122.625 42.75H113.25V46.5H120.75V76.5H83.25V46.5H90.75V42.75H81.375C80.3387 42.75 79.5 43.5887 79.5 44.625V78.375C79.5 79.4113 80.3387 80.25 81.375 80.25H122.625C123.661 80.25 124.5 79.4113 124.5 78.375V44.625C124.5 43.5887 123.661 42.75 122.625 42.75Z" fill="#2AA7FF"/>
<path d="M90.75 42.75H79.5V39H90.75V35.25H77.625C76.5887 35.25 75.75 36.0887 75.75 37.125V44.625C75.75 45.6613 76.5887 46.5 77.625 46.5H90.75V42.75Z" fill="#2AA7FF"/>
<path d="M126.375 35.25H113.25V39H124.5V42.75H113.25V46.5H126.375C127.411 46.5 128.25 45.6613 128.25 44.625V37.125C128.25 36.0887 127.411 35.25 126.375 35.25Z" fill="#2AA7FF"/>
<path d="M113.25 54H90.75C89.7137 54 88.875 53.1613 88.875 52.125V29.625C88.875 28.5887 89.7137 27.75 90.75 27.75H113.25C114.286 27.75 115.125 28.5887 115.125 29.625V52.125C115.125 53.1613 114.286 54 113.25 54ZM92.625 50.25H111.375V31.5H92.625V50.25Z" fill="#2AA7FF"/>
<path d="M105.75 39H103.875V37.125C103.875 36.0887 103.036 35.25 102 35.25C100.964 35.25 100.125 36.0887 100.125 37.125V39H98.25C97.2137 39 96.375 39.8387 96.375 40.875C96.375 41.9113 97.2137 42.75 98.25 42.75H100.125V44.625C100.125 45.6613 100.964 46.5 102 46.5C103.036 46.5 103.875 45.6613 103.875 44.625V42.75H105.75C106.786 42.75 107.625 41.9113 107.625 40.875C107.625 39.8387 106.786 39 105.75 39Z" fill="#2AA7FF"/>
<path d="M96.375 69H88.875C87.8387 69 87 68.1613 87 67.125V63.375C87 60.2732 89.5232 57.75 92.625 57.75C95.7268 57.75 98.25 60.2732 98.25 63.375V67.125C98.25 68.1613 97.4113 69 96.375 69ZM90.75 65.25H94.5V63.375C94.5 62.3404 93.6596 61.5 92.625 61.5C91.5904 61.5 90.75 62.3404 90.75 63.375V65.25Z" fill="#2AA7FF"/>
</svg>
