<svg width="203" height="153" viewBox="0 0 203 153" fill="none" xmlns="http://www.w3.org/2000/svg">
<rect width="203" height="153" rx="8" fill="#FAFBFE"/>
<path d="M94.0444 43.3939L91.3932 46.0454L109.956 64.6061L112.607 61.9546L94.0444 43.3939Z" fill="#2AA7FF"/>
<path d="M90.0669 80.9321C86.0606 80.9321 82.2941 79.3721 79.4615 76.5384C76.6271 73.7059 75.0669 69.9394 75.0669 65.9321C75.0669 61.9258 76.6269 58.1584 79.4615 55.3258L103.326 31.4616C106.158 28.6281 109.925 27.0679 113.933 27.0679C117.941 27.0679 121.706 28.6279 124.538 31.4616C127.373 34.2941 128.933 38.0606 128.933 42.0679C128.933 46.0751 127.373 49.8416 124.538 52.6742L100.674 76.5382C97.8418 79.3717 94.0751 80.9321 90.0669 80.9321ZM113.933 30.8179C110.926 30.8179 108.101 31.9879 105.977 34.1128L82.113 57.9771C79.9871 60.102 78.8171 62.9272 78.8171 65.9321C78.8171 68.937 79.9871 71.7622 82.113 73.8872C84.237 76.0121 87.0622 77.1821 90.0671 77.1821C93.0736 77.1821 95.8991 76.0121 98.0231 73.8872L121.887 50.0231C124.013 47.8982 125.183 45.0729 125.183 42.0681C125.183 39.0632 124.013 36.2379 121.887 34.113C119.763 31.9881 116.938 30.8179 113.933 30.8179Z" fill="#2AA7FF"/>
<path d="M108.628 41.2905C108.149 41.2905 107.669 41.1073 107.303 40.7411C106.57 40.0087 106.57 38.8222 107.303 38.0897L108.628 36.764C110.764 34.6273 113.953 33.9827 116.755 35.1189C117.714 35.508 118.176 36.6011 117.787 37.5605C117.399 38.5209 116.301 38.9795 115.345 38.5942C113.944 38.0276 112.349 38.3497 111.28 39.4164L109.954 40.7411C109.588 41.1073 109.108 41.2905 108.628 41.2905Z" fill="#2AA7FF"/>
<path d="M52.4032 106.544V119H50.7652V109.712L46.6252 119H45.4732L41.3152 109.694V119H39.6772V106.544H41.4412L46.0492 116.84L50.6572 106.544H52.4032ZM64.5411 113.69C64.5411 114.002 64.5231 114.332 64.4871 114.68H56.6031C56.6631 115.652 56.9931 116.414 57.5931 116.966C58.2051 117.506 58.9431 117.776 59.8071 117.776C60.5151 117.776 61.1031 117.614 61.5711 117.29C62.0511 116.954 62.3871 116.51 62.5791 115.958H64.3431C64.0791 116.906 63.5511 117.68 62.7591 118.28C61.9671 118.868 60.9831 119.162 59.8071 119.162C58.8711 119.162 58.0311 118.952 57.2871 118.532C56.5551 118.112 55.9791 117.518 55.5591 116.75C55.1391 115.97 54.9291 115.07 54.9291 114.05C54.9291 113.03 55.1331 112.136 55.5411 111.368C55.9491 110.6 56.5191 110.012 57.2511 109.604C57.9951 109.184 58.8471 108.974 59.8071 108.974C60.7431 108.974 61.5711 109.178 62.2911 109.586C63.0111 109.994 63.5631 110.558 63.9471 111.278C64.3431 111.986 64.5411 112.79 64.5411 113.69ZM62.8491 113.348C62.8491 112.724 62.7111 112.19 62.4351 111.746C62.1591 111.29 61.7811 110.948 61.3011 110.72C60.8331 110.48 60.3111 110.36 59.7351 110.36C58.9071 110.36 58.1991 110.624 57.6111 111.152C57.0351 111.68 56.7051 112.412 56.6211 113.348H62.8491ZM66.4512 114.032C66.4512 113.024 66.6552 112.142 67.0632 111.386C67.4712 110.618 68.0292 110.024 68.7372 109.604C69.4572 109.184 70.2612 108.974 71.1492 108.974C71.9172 108.974 72.6312 109.154 73.2912 109.514C73.9512 109.862 74.4552 110.324 74.8032 110.9V105.68H76.4592V119H74.8032V117.146C74.4792 117.734 73.9992 118.22 73.3632 118.604C72.7272 118.976 71.9832 119.162 71.1312 119.162C70.2552 119.162 69.4572 118.946 68.7372 118.514C68.0292 118.082 67.4712 117.476 67.0632 116.696C66.6552 115.916 66.4512 115.028 66.4512 114.032ZM74.8032 114.05C74.8032 113.306 74.6532 112.658 74.3532 112.106C74.0532 111.554 73.6452 111.134 73.1292 110.846C72.6252 110.546 72.0672 110.396 71.4552 110.396C70.8432 110.396 70.2852 110.54 69.7812 110.828C69.2772 111.116 68.8752 111.536 68.5752 112.088C68.2752 112.64 68.1252 113.288 68.1252 114.032C68.1252 114.788 68.2752 115.448 68.5752 116.012C68.8752 116.564 69.2772 116.99 69.7812 117.29C70.2852 117.578 70.8432 117.722 71.4552 117.722C72.0672 117.722 72.6252 117.578 73.1292 117.29C73.6452 116.99 74.0532 116.564 74.3532 116.012C74.6532 115.448 74.8032 114.794 74.8032 114.05ZM80.4333 107.534C80.1213 107.534 79.8573 107.426 79.6413 107.21C79.4253 106.994 79.3173 106.73 79.3173 106.418C79.3173 106.106 79.4253 105.842 79.6413 105.626C79.8573 105.41 80.1213 105.302 80.4333 105.302C80.7333 105.302 80.9853 105.41 81.1893 105.626C81.4053 105.842 81.5133 106.106 81.5133 106.418C81.5133 106.73 81.4053 106.994 81.1893 107.21C80.9853 107.426 80.7333 107.534 80.4333 107.534ZM81.2253 109.136V119H79.5873V109.136H81.2253ZM83.7649 114.05C83.7649 113.03 83.9689 112.142 84.3769 111.386C84.7849 110.618 85.3489 110.024 86.0689 109.604C86.8009 109.184 87.6349 108.974 88.5709 108.974C89.7829 108.974 90.7789 109.268 91.5589 109.856C92.3509 110.444 92.8729 111.26 93.1249 112.304H91.3609C91.1929 111.704 90.8629 111.23 90.3709 110.882C89.8909 110.534 89.2909 110.36 88.5709 110.36C87.6349 110.36 86.8789 110.684 86.3029 111.332C85.7269 111.968 85.4389 112.874 85.4389 114.05C85.4389 115.238 85.7269 116.156 86.3029 116.804C86.8789 117.452 87.6349 117.776 88.5709 117.776C89.2909 117.776 89.8909 117.608 90.3709 117.272C90.8509 116.936 91.1809 116.456 91.3609 115.832H93.1249C92.8609 116.84 92.3329 117.65 91.5409 118.262C90.7489 118.862 89.7589 119.162 88.5709 119.162C87.6349 119.162 86.8009 118.952 86.0689 118.532C85.3489 118.112 84.7849 117.518 84.3769 116.75C83.9689 115.982 83.7649 115.082 83.7649 114.05ZM95.0585 114.032C95.0585 113.024 95.2625 112.142 95.6705 111.386C96.0785 110.618 96.6365 110.024 97.3445 109.604C98.0645 109.184 98.8625 108.974 99.7385 108.974C100.603 108.974 101.353 109.16 101.989 109.532C102.625 109.904 103.099 110.372 103.411 110.936V109.136H105.067V119H103.411V117.164C103.087 117.74 102.601 118.22 101.953 118.604C101.317 118.976 100.573 119.162 99.7205 119.162C98.8445 119.162 98.0525 118.946 97.3445 118.514C96.6365 118.082 96.0785 117.476 95.6705 116.696C95.2625 115.916 95.0585 115.028 95.0585 114.032ZM103.411 114.05C103.411 113.306 103.261 112.658 102.961 112.106C102.661 111.554 102.253 111.134 101.737 110.846C101.233 110.546 100.675 110.396 100.063 110.396C99.4505 110.396 98.8925 110.54 98.3885 110.828C97.8845 111.116 97.4825 111.536 97.1825 112.088C96.8825 112.64 96.7325 113.288 96.7325 114.032C96.7325 114.788 96.8825 115.448 97.1825 116.012C97.4825 116.564 97.8845 116.99 98.3885 117.29C98.8925 117.578 99.4505 117.722 100.063 117.722C100.675 117.722 101.233 117.578 101.737 117.29C102.253 116.99 102.661 116.564 102.961 116.012C103.261 115.448 103.411 114.794 103.411 114.05ZM109.833 105.68V119H108.195V105.68H109.833ZM122.121 119.126C121.293 119.126 120.549 118.982 119.889 118.694C119.241 118.394 118.731 117.986 118.359 117.47C117.987 116.942 117.795 116.336 117.783 115.652H119.529C119.589 116.24 119.829 116.738 120.249 117.146C120.681 117.542 121.305 117.74 122.121 117.74C122.901 117.74 123.513 117.548 123.957 117.164C124.413 116.768 124.641 116.264 124.641 115.652C124.641 115.172 124.509 114.782 124.245 114.482C123.981 114.182 123.651 113.954 123.255 113.798C122.859 113.642 122.325 113.474 121.653 113.294C120.825 113.078 120.159 112.862 119.655 112.646C119.163 112.43 118.737 112.094 118.377 111.638C118.029 111.17 117.855 110.546 117.855 109.766C117.855 109.082 118.029 108.476 118.377 107.948C118.725 107.42 119.211 107.012 119.835 106.724C120.471 106.436 121.197 106.292 122.013 106.292C123.189 106.292 124.149 106.586 124.893 107.174C125.649 107.762 126.075 108.542 126.171 109.514H124.371C124.311 109.034 124.059 108.614 123.615 108.254C123.171 107.882 122.583 107.696 121.851 107.696C121.167 107.696 120.609 107.876 120.177 108.236C119.745 108.584 119.529 109.076 119.529 109.712C119.529 110.168 119.655 110.54 119.907 110.828C120.171 111.116 120.489 111.338 120.861 111.494C121.245 111.638 121.779 111.806 122.463 111.998C123.291 112.226 123.957 112.454 124.461 112.682C124.965 112.898 125.397 113.24 125.757 113.708C126.117 114.164 126.297 114.788 126.297 115.58C126.297 116.192 126.135 116.768 125.811 117.308C125.487 117.848 125.007 118.286 124.371 118.622C123.735 118.958 122.985 119.126 122.121 119.126ZM131.066 110.486V116.3C131.066 116.78 131.168 117.122 131.372 117.326C131.576 117.518 131.93 117.614 132.434 117.614H133.64V119H132.164C131.252 119 130.568 118.79 130.112 118.37C129.656 117.95 129.428 117.26 129.428 116.3V110.486H128.15V109.136H129.428V106.652H131.066V109.136H133.64V110.486H131.066ZM140.286 119.162C139.362 119.162 138.522 118.952 137.766 118.532C137.022 118.112 136.434 117.518 136.002 116.75C135.582 115.97 135.372 115.07 135.372 114.05C135.372 113.042 135.588 112.154 136.02 111.386C136.464 110.606 137.064 110.012 137.82 109.604C138.576 109.184 139.422 108.974 140.358 108.974C141.294 108.974 142.14 109.184 142.896 109.604C143.652 110.012 144.246 110.6 144.678 111.368C145.122 112.136 145.344 113.03 145.344 114.05C145.344 115.07 145.116 115.97 144.66 116.75C144.216 117.518 143.61 118.112 142.842 118.532C142.074 118.952 141.222 119.162 140.286 119.162ZM140.286 117.722C140.874 117.722 141.426 117.584 141.942 117.308C142.458 117.032 142.872 116.618 143.184 116.066C143.508 115.514 143.67 114.842 143.67 114.05C143.67 113.258 143.514 112.586 143.202 112.034C142.89 111.482 142.482 111.074 141.978 110.81C141.474 110.534 140.928 110.396 140.34 110.396C139.74 110.396 139.188 110.534 138.684 110.81C138.192 111.074 137.796 111.482 137.496 112.034C137.196 112.586 137.046 113.258 137.046 114.05C137.046 114.854 137.19 115.532 137.478 116.084C137.778 116.636 138.174 117.05 138.666 117.326C139.158 117.59 139.698 117.722 140.286 117.722ZM149.496 110.738C149.784 110.174 150.192 109.736 150.72 109.424C151.26 109.112 151.914 108.956 152.682 108.956V110.648H152.25C150.414 110.648 149.496 111.644 149.496 113.636V119H147.858V109.136H149.496V110.738ZM163.933 113.69C163.933 114.002 163.915 114.332 163.879 114.68H155.995C156.055 115.652 156.385 116.414 156.985 116.966C157.597 117.506 158.335 117.776 159.199 117.776C159.907 117.776 160.495 117.614 160.963 117.29C161.443 116.954 161.779 116.51 161.971 115.958H163.735C163.471 116.906 162.943 117.68 162.151 118.28C161.359 118.868 160.375 119.162 159.199 119.162C158.263 119.162 157.423 118.952 156.679 118.532C155.947 118.112 155.371 117.518 154.951 116.75C154.531 115.97 154.321 115.07 154.321 114.05C154.321 113.03 154.525 112.136 154.933 111.368C155.341 110.6 155.911 110.012 156.643 109.604C157.387 109.184 158.239 108.974 159.199 108.974C160.135 108.974 160.963 109.178 161.683 109.586C162.403 109.994 162.955 110.558 163.339 111.278C163.735 111.986 163.933 112.79 163.933 113.69ZM162.241 113.348C162.241 112.724 162.103 112.19 161.827 111.746C161.551 111.29 161.173 110.948 160.693 110.72C160.225 110.48 159.703 110.36 159.127 110.36C158.299 110.36 157.591 110.624 157.003 111.152C156.427 111.68 156.097 112.412 156.013 113.348H162.241Z" fill="#ABB6C7"/>
</svg>
